<svg xmlns="http://www.w3.org/2000/svg" width="256" height="256" viewBox="0 0 100 100"><rect width="100" height="100" rx="50" fill="#ededed"></rect><path d="M54.43 17.76L80.22 82.24L73.47 82.24Q72.30 82.24 71.58 81.66Q70.86 81.07 70.50 80.17L70.50 80.17L64.47 64.60L35.53 64.60L29.50 80.17Q29.19 80.98 28.42 81.61Q27.66 82.24 26.53 82.24L26.53 82.24L19.78 82.24L45.57 17.76L54.43 17.76ZM48.09 32.11L37.96 58.30L62.04 58.30L51.91 32.07Q50.92 29.64 49.98 25.99L49.98 25.99Q49.48 27.84 49.01 29.39Q48.54 30.94 48.09 32.11L48.09 32.11Z" fill="#5593dc"></path></svg>